<?xml version="1.0" encoding="UTF-8" ?>
<!DOCTYPE svg PUBLIC "-//W3C//DTD SVG 1.1//EN" "http://www.w3.org/Graphics/SVG/1.1/DTD/svg11.dtd">
<svg width="400pt" height="150pt" viewBox="0 0 400 150" version="1.1" xmlns="http://www.w3.org/2000/svg">
<g id="#e76f51ff">
<path fill="#e76f51" opacity="1.00" d=" M 25.32 7.41 C 28.36 5.09 32.26 4.15 36.03 4.13 C 73.01 4.17 109.99 4.14 146.98 4.14 C 153.03 4.01 159.96 7.50 160.96 13.96 C 161.05 54.84 160.97 95.72 161.00 136.61 C 158.46 141.41 153.66 145.06 148.04 144.85 C 110.67 144.89 73.30 144.83 35.94 144.88 C 31.99 144.92 27.83 143.96 24.89 141.18 C 23.11 139.30 22.26 136.80 21.06 134.57 C 20.96 94.53 20.96 54.49 21.06 14.46 C 22.36 12.05 23.24 9.29 25.32 7.41 M 83.20 24.18 C 70.49 25.94 58.55 32.22 49.76 41.55 C 49.77 42.84 50.06 44.10 51.15 44.90 C 56.83 50.56 62.49 56.22 68.13 61.92 C 68.99 62.77 69.89 63.62 71.01 64.13 C 73.83 62.36 76.30 60.09 79.10 58.28 C 76.21 53.60 74.66 48.25 71.96 43.47 C 71.62 40.95 73.81 39.58 75.98 39.11 C 77.00 40.04 78.29 40.82 78.79 42.19 C 80.84 46.87 82.99 51.51 85.13 56.15 C 92.67 55.17 100.88 55.82 106.99 60.83 C 108.77 61.96 110.83 65.16 113.14 63.30 C 119.23 57.67 124.85 51.54 130.85 45.80 C 133.00 44.00 132.61 40.13 130.12 38.80 C 117.64 27.35 100.01 21.49 83.20 24.18 Z" />
<path fill="#e76f51" opacity="1.00" d=" M 170.75 21.06 C 181.71 18.87 192.94 18.63 204.08 19.08 C 212.08 19.92 220.71 21.43 226.73 27.25 C 231.83 32.20 233.12 39.85 231.84 46.62 C 230.68 51.42 227.07 55.15 222.98 57.70 C 226.40 59.51 230.10 61.21 232.47 64.42 C 236.66 70.14 236.92 77.77 235.56 84.48 C 234.24 90.55 230.07 95.73 224.60 98.59 C 216.18 103.22 206.32 103.57 196.95 104.03 C 188.19 103.32 179.27 103.59 170.71 101.36 C 170.81 74.59 170.72 47.82 170.75 21.06 M 189.00 34.06 C 189.00 40.19 189.00 46.31 189.00 52.44 C 195.63 52.34 202.51 52.92 208.92 50.90 C 215.40 49.08 216.47 38.62 210.29 35.79 C 203.66 32.67 196.06 34.43 189.00 34.06 M 189.00 66.56 C 188.99 73.70 189.01 80.84 188.99 87.99 C 196.65 89.14 204.87 89.27 212.10 86.17 C 219.02 83.34 219.27 71.74 212.39 68.74 C 205.08 65.36 196.78 66.93 189.00 66.56 Z" />
<path fill="#e76f51" opacity="1.00" d=" M 248.93 103.00 C 250.67 75.20 251.55 47.28 255.59 19.70 C 261.62 19.83 267.66 19.68 273.70 19.80 C 282.10 35.81 288.82 52.61 296.20 69.09 C 303.08 52.45 310.20 35.90 318.31 19.82 C 324.17 19.68 330.03 19.79 335.90 19.75 C 339.15 47.39 341.01 75.19 342.06 103.00 C 336.02 103.00 329.99 103.00 323.95 103.00 C 324.07 91.64 322.86 80.33 322.79 68.98 C 322.14 61.96 321.96 54.90 321.29 47.88 C 314.48 62.46 308.73 77.53 302.22 92.26 C 297.88 92.25 293.54 92.23 289.20 92.28 C 282.89 77.59 276.42 62.96 270.46 48.13 C 268.62 53.76 269.44 59.80 268.75 65.61 C 268.03 72.07 268.10 78.58 267.96 85.07 C 267.45 91.04 267.29 97.02 267.12 103.00 C 261.06 102.99 255.00 103.00 248.93 103.00 Z" />
<path fill="#e76f51" opacity="1.00" d=" M 358.94 19.75 C 365.13 19.74 371.33 19.77 377.52 19.73 C 377.61 47.48 377.52 75.23 377.57 102.98 C 371.36 103.02 365.15 102.99 358.94 103.00 C 358.94 75.25 358.94 47.50 358.94 19.75 Z" />
<path fill="#e76f51" opacity="1.00" d=" M 225.06 103.21 C 227.04 103.00 229.02 102.78 231.01 102.51 C 231.06 111.02 230.88 119.53 231.08 128.03 C 230.98 129.67 233.21 129.67 234.22 130.34 C 234.04 131.87 233.86 133.40 233.67 134.92 C 229.90 135.61 224.91 133.50 224.98 129.11 C 224.93 120.48 224.84 111.84 225.06 103.21 Z" />
<path fill="#e76f51" opacity="1.00" d=" M 283.80 103.21 C 285.73 103.01 287.67 102.80 289.60 102.56 C 289.58 110.72 289.45 118.88 289.64 127.03 C 289.43 129.15 291.47 129.91 293.13 130.31 C 292.81 131.94 292.46 133.57 292.12 135.20 C 288.84 135.11 284.24 133.95 283.91 130.02 C 283.56 121.10 283.80 112.15 283.80 103.21 Z" />
<path fill="#e76f51" opacity="1.00" d=" M 177.32 109.26 C 182.40 104.41 190.27 104.74 196.42 107.16 C 196.02 108.95 195.44 110.69 194.79 112.40 C 191.58 110.90 187.81 110.47 184.39 111.42 C 177.52 114.63 177.74 127.42 185.49 129.39 C 188.92 130.49 192.38 128.90 195.78 128.44 C 196.12 130.00 196.56 131.55 197.08 133.06 C 190.52 136.05 181.42 136.39 176.25 130.65 C 171.74 124.43 171.92 114.90 177.32 109.26 Z" />
<path fill="#e76f51" opacity="1.00" d=" M 320.70 107.05 C 322.55 106.94 324.41 106.81 326.26 106.65 C 326.25 108.73 326.25 110.81 326.27 112.89 C 328.85 112.94 331.42 112.94 334.00 112.95 C 333.99 114.63 334.00 116.31 334.00 118.00 C 331.41 118.00 328.83 118.00 326.25 118.01 C 326.77 121.89 324.75 127.02 328.17 129.92 C 330.10 130.18 332.04 129.90 333.97 129.73 C 334.16 131.22 334.36 132.72 334.57 134.21 C 330.74 135.27 326.08 135.94 322.78 133.19 C 320.09 130.55 320.48 126.42 320.42 122.97 C 320.59 117.66 320.13 112.33 320.70 107.05 Z" />
<path fill="#e76f51" opacity="1.00" d=" M 202.57 113.10 C 207.45 112.70 213.96 110.98 217.48 115.48 C 220.29 121.20 218.50 127.83 219.00 133.95 C 214.20 135.06 208.88 135.95 204.15 134.17 C 199.44 132.44 199.08 124.78 203.59 122.62 C 206.52 121.10 209.97 121.39 213.16 121.71 C 212.87 120.47 213.17 118.78 211.83 118.06 C 209.15 116.41 205.91 117.57 203.07 118.11 C 202.91 116.44 202.74 114.77 202.57 113.10 M 206.24 128.76 C 207.50 131.33 210.66 130.67 212.98 130.78 C 212.99 129.13 213.06 127.47 212.92 125.83 C 210.84 124.21 205.73 125.41 206.24 128.76 Z" />
<path fill="#e76f51" opacity="1.00" d=" M 242.64 113.75 C 246.14 111.70 250.34 112.51 254.08 113.27 C 253.66 114.87 253.25 116.48 252.86 118.08 C 250.63 117.46 248.08 116.60 245.93 117.96 C 242.22 120.19 242.10 126.12 244.94 129.09 C 247.59 130.79 251.03 129.93 253.95 129.42 C 254.08 130.98 254.25 132.54 254.42 134.10 C 249.70 135.74 243.69 135.77 240.01 131.94 C 235.24 126.79 236.37 117.22 242.64 113.75 Z" />
<path fill="#e76f51" opacity="1.00" d=" M 258.94 112.94 C 260.96 112.94 262.98 112.94 265.00 112.94 C 265.12 117.90 264.76 122.88 265.17 127.84 C 265.82 130.75 269.20 129.89 271.37 130.03 C 271.50 124.35 271.42 118.67 271.43 112.98 C 273.36 112.96 275.30 112.94 277.25 112.92 C 277.26 119.91 277.23 126.90 277.26 133.89 C 273.06 134.91 268.57 135.71 264.32 134.61 C 261.06 133.64 259.10 130.36 259.00 127.07 C 258.82 122.36 259.00 117.65 258.94 112.94 Z" />
<path fill="#e76f51" opacity="1.00" d=" M 298.16 113.11 C 301.76 112.81 305.44 111.96 309.03 112.84 C 311.86 113.30 314.23 115.78 314.34 118.69 C 314.85 123.75 314.41 128.85 314.58 133.92 C 310.01 135.18 305.03 135.70 300.43 134.42 C 296.13 133.08 294.55 127.07 297.70 123.83 C 300.70 120.89 305.27 121.40 309.10 121.66 C 308.78 120.31 308.76 118.48 307.26 117.86 C 304.66 116.51 301.69 117.58 299.00 118.06 C 298.72 116.41 298.44 114.76 298.16 113.11 M 301.97 128.02 C 302.22 131.36 306.41 130.71 308.77 130.78 C 308.87 129.10 308.96 127.42 309.06 125.74 C 306.63 124.84 302.54 124.82 301.97 128.02 Z" />
<path fill="#e76f51" opacity="1.00" d=" M 343.37 113.35 C 348.19 111.19 354.67 112.87 357.02 117.82 C 359.39 122.94 358.71 130.32 353.57 133.53 C 348.86 136.69 341.60 135.11 338.90 130.03 C 336.00 124.50 337.26 116.13 343.37 113.35 M 346.06 130.09 C 347.94 129.97 350.31 130.37 351.28 128.29 C 353.33 124.76 353.02 117.93 348.06 117.16 C 341.99 117.85 341.98 126.85 346.06 130.09 Z" />
<path fill="#e76f51" opacity="1.00" d=" M 363.93 113.99 C 368.41 112.35 373.27 112.10 377.94 113.04 C 377.52 114.69 377.16 116.34 376.86 118.01 C 374.75 117.65 371.78 116.25 370.09 118.00 C 369.83 123.51 370.10 129.04 369.98 134.56 C 367.99 134.56 366.01 134.57 364.02 134.59 C 363.83 127.72 364.00 120.85 363.93 113.99 Z" />
</g>
</svg>
